<?xml version="1.0" standalone="no"?>
<!DOCTYPE svg PUBLIC "-//W3C//DTD SVG 20010904//EN"
 "http://www.w3.org/TR/2001/REC-SVG-20010904/DTD/svg10.dtd">
<svg version="1.0" xmlns="http://www.w3.org/2000/svg"
 width="527.000000pt" height="295.000000pt" viewBox="0 0 527.000000 295.000000"
 preserveAspectRatio="xMidYMid meet">

<g transform="translate(0.000000,295.000000) scale(0.100000,-0.100000)"
fill="#000000" stroke="none">
<path d="M0 1475 l0 -1475 2635 0 2635 0 0 1475 0 1475 -2635 0 -2635 0 0
-1475z m2765 1083 c14 -6 24 -18 23 -27 -3 -14 -97 -74 -241 -152 -31 -18 -55
-34 -53 -36 5 -6 157 78 253 139 62 40 79 42 113 18 35 -25 37 -32 11 -45 -24
-13 -125 -69 -176 -98 -22 -13 -61 -35 -86 -49 -25 -14 -55 -31 -66 -38 -17
-11 -24 -10 -44 3 -43 31 -58 23 -62 -35 -3 -51 -3 -50 -5 13 -2 64 -3 66 -37
85 -28 15 -32 21 -22 31 18 18 340 203 354 203 7 0 24 -5 38 -12z m190 -110
c14 -6 25 -17 25 -23 0 -7 -42 -36 -92 -65 -105 -60 -103 -59 -97 -64 2 -2 51
22 109 55 58 32 110 59 117 59 23 0 72 -50 66 -67 -13 -32 -345 -668 -354
-678 -6 -6 -9 78 -7 237 l3 246 -43 21 c-32 16 -44 18 -47 9 -3 -7 -6 -89 -8
-183 l-3 -170 -2 188 c-2 157 0 187 12 187 8 0 18 5 21 10 4 7 -2 9 -19 4 -16
-4 -33 0 -48 10 -44 31 -48 24 -48 -100 0 -74 -4 -113 -10 -109 -13 8 -13 235
-1 235 9 0 63 31 271 153 101 60 115 64 155 45z m-1782 -975 c-13 -2 -33 -2
-45 0 -13 2 -3 4 22 4 25 0 35 -2 23 -4z m1360 0 c-13 -2 -33 -2 -45 0 -13 2
-3 4 22 4 25 0 35 -2 23 -4z m-1459 -34 c-27 -28 -29 -36 -29 -104 0 -64 3
-77 24 -99 14 -14 20 -26 14 -26 -12 0 -47 37 -62 67 -27 53 -2 145 48 176 37
24 39 21 5 -14z m162 17 c10 -8 17 -17 14 -19 -3 -3 -16 3 -29 14 -27 22 -15
26 15 5z m1202 -3 c-62 -71 -63 -163 -4 -232 l21 -24 -27 17 c-41 27 -58 60
-58 116 0 59 11 86 48 117 32 27 41 30 20 6z m152 2 c20 -24 6 -28 -15 -5 -10
11 -13 20 -8 20 6 0 16 -7 23 -15z m-1220 -136 l0 -121 55 4 c30 1 55 0 55 -4
0 -5 -34 -8 -76 -8 -66 0 -75 2 -64 15 8 10 11 48 8 125 -2 83 0 110 10 110 9
0 12 -31 12 -121z m443 89 c8 -49 65 -170 77 -163 12 7 12 -2 0 -30 -7 -17
-14 -7 -45 60 -20 44 -45 97 -56 118 -23 46 -23 47 0 47 13 0 20 -9 24 -32z
m175 15 c-9 -10 -30 -49 -47 -88 -16 -38 -31 -64 -31 -57 0 7 9 33 20 58 11
24 23 58 27 74 4 22 11 30 26 30 18 0 19 -2 5 -17z m212 10 c0 -5 -25 -6 -55
-5 l-55 4 0 -61 0 -61 48 -2 47 -2 -47 -3 -48 -4 0 -49 0 -49 58 -4 57 -3 -70
-2 -70 -2 0 125 0 125 68 0 c37 0 67 -3 67 -7z m623 0 c-7 -2 -19 -2 -25 0 -7
3 -2 5 12 5 14 0 19 -2 13 -5z m320 -122 c32 -31 63 -58 69 -60 6 -2 9 30 7
93 -3 60 0 96 6 96 6 0 9 -45 7 -122 l-3 -121 -52 50 c-106 103 -141 133 -154
133 -7 0 -13 3 -13 8 0 4 -3 18 -7 32 -6 23 -3 22 38 -14 24 -22 70 -65 102
-95z m267 110 c-5 -11 -10 -59 -10 -106 0 -47 5 -95 10 -106 9 -17 7 -19 -16
-19 -22 0 -24 2 -14 15 8 10 11 48 8 125 -3 100 -1 110 15 110 14 0 16 -4 7
-19z m448 12 l-28 -4 0 -115 0 -114 41 0 c28 0 46 6 55 18 17 21 18 64 2 80
-7 7 -9 12 -6 12 16 0 38 -34 38 -60 0 -41 -32 -60 -100 -60 l-55 0 0 125 0
125 40 -1 c30 -2 33 -3 13 -6z m204 -114 l-3 -121 55 4 c31 1 56 0 56 -4 0 -5
-30 -8 -67 -8 l-68 0 0 125 c0 104 2 125 15 125 13 0 15 -19 12 -121z m318
114 c0 -5 -25 -6 -55 -5 l-55 4 0 -61 0 -61 48 -2 47 -2 -47 -3 -48 -4 0 -50
0 -51 55 4 c30 1 55 0 55 -4 0 -5 -30 -8 -67 -8 l-68 0 0 125 0 125 68 0 c37
0 67 -3 67 -7z m-2704 -70 c42 -95 75 -157 87 -165 7 -4 -3 -8 -21 -8 -18 0
-31 4 -28 9 3 5 1 23 -5 40 -10 29 -14 31 -65 31 -57 0 -74 -14 -74 -59 0 -15
-6 -21 -21 -21 -17 0 -19 3 -10 13 6 8 27 47 46 88 20 41 33 63 29 49 -13 -46
-10 -55 19 -58 52 -6 57 1 39 52 -9 25 -23 46 -29 46 -7 0 -13 2 -13 4 0 9 12
36 17 36 2 0 15 -26 29 -57z m1050 26 c-34 -40 -36 -107 -4 -152 l23 -32 -25
16 c-30 19 -52 78 -44 118 6 30 47 81 65 81 6 0 -1 -14 -15 -31z m165 21 c40
-22 63 -106 39 -150 -5 -10 -25 -29 -42 -42 l-33 -23 27 33 c37 44 44 91 22
133 -9 19 -24 39 -33 46 -20 15 -7 17 20 3z m758 -42 c59 -132 75 -163 85
-170 6 -4 -1 -8 -16 -8 -22 0 -28 5 -28 21 0 45 -17 59 -74 59 -50 0 -54 -2
-66 -29 -6 -17 -9 -35 -5 -40 4 -7 -5 -11 -22 -11 -15 0 -23 4 -17 8 6 4 25
37 42 75 17 37 34 67 37 67 3 0 1 -9 -5 -20 -6 -11 -8 -25 -5 -30 8 -12 72
-13 79 -1 9 14 -26 91 -41 91 -15 0 -15 2 -7 24 10 26 18 19 43 -36z m285 29
c12 -19 -9 -67 -32 -75 -10 -3 -9 3 3 22 15 22 16 31 6 52 -13 30 5 30 23 1z
m-917 -206 c-13 -5 -14 0 -8 59 l5 55 6 -55 c3 -30 1 -57 -3 -59z m-1757 55
c0 -8 -7 -16 -15 -20 -12 -4 -13 -2 -2 14 14 24 17 25 17 6z m1350 -11 c-7 -8
-16 -15 -21 -15 -5 0 -1 8 9 18 20 22 31 19 12 -3z m-1427 -42 c-13 -2 -35 -2
-50 0 -16 2 -5 4 22 4 28 0 40 -2 28 -4z m1350 0 c-13 -2 -33 -2 -45 0 -13 2
-3 4 22 4 25 0 35 -2 23 -4z m295 0 c-10 -2 -26 -2 -35 0 -10 3 -2 5 17 5 19
0 27 -2 18 -5z m1992 -223 c0 -7 -705 -10 -2095 -10 -1390 0 -2095 3 -2095 10
0 7 705 10 2095 10 1390 0 2095 -3 2095 -10z m-2473 -292 c-2 -18 -4 -4 -4 32
0 36 2 50 4 33 2 -18 2 -48 0 -65z m350 -5 c-2 -21 -4 -6 -4 32 0 39 2 55 4
38 2 -18 2 -50 0 -70z m380 15 c-2 -13 -4 -5 -4 17 -1 22 1 32 4 23 2 -10 2
-28 0 -40z m-1440 5 c-3 -10 -5 -4 -5 12 0 17 2 24 5 18 2 -7 2 -21 0 -30z
m2210 -15 c-3 -8 -6 -5 -6 6 -1 11 2 17 5 13 3 -3 4 -12 1 -19z m-2310 -20
c-3 -8 -6 -5 -6 6 -1 11 2 17 5 13 3 -3 4 -12 1 -19z"/>
<path d="M2456 2324 c-11 -8 -16 -14 -10 -14 13 0 39 18 34 24 -3 2 -14 -2
-24 -10z"/>
<path d="M2713 2259 c-18 -12 -33 -23 -33 -25 0 -7 35 10 59 28 32 25 14 23
-26 -3z"/>
</g>
</svg>
